<?xml version="1.0" encoding="UTF-8"?>
<!DOCTYPE svg PUBLIC "-//W3C//DTD SVG 1.1//EN" "http://www.w3.org/Graphics/SVG/1.1/DTD/svg11.dtd">
<svg xmlns="http://www.w3.org/2000/svg" version="1.1" width="1123px" height="794px" style="shape-rendering:geometricPrecision; text-rendering:geometricPrecision; image-rendering:optimizeQuality; fill-rule:evenodd; clip-rule:evenodd" xmlns:xlink="http://www.w3.org/1999/xlink">
<g><path style="opacity:1" fill="#000001" d="M 228.5,71.5 C 386.834,71.3333 545.167,71.5 703.5,72C 739.419,74.5583 773.086,84.3916 804.5,101.5C 804.821,103.048 805.821,103.715 807.5,103.5C 808.492,103.328 809.158,103.662 809.5,104.5C 810.733,106.796 812.733,108.13 815.5,108.5C 815.973,109.906 816.973,110.573 818.5,110.5C 818.973,111.906 819.973,112.573 821.5,112.5C 822.539,114.531 824.205,115.864 826.5,116.5C 826.973,117.906 827.973,118.573 829.5,118.5C 830.865,120.86 832.865,122.527 835.5,123.5C 836.833,124.167 837.833,125.167 838.5,126.5C 842.167,130.833 846.167,134.833 850.5,138.5C 851.757,141.427 853.757,143.761 856.5,145.5C 857.08,147.749 858.413,149.415 860.5,150.5C 860.738,152.404 861.738,153.738 863.5,154.5C 863.427,156.027 864.094,157.027 865.5,157.5C 865.427,159.027 866.094,160.027 867.5,160.5C 867.427,162.027 868.094,163.027 869.5,163.5C 869.427,165.027 870.094,166.027 871.5,166.5C 872.338,166.842 872.672,167.508 872.5,168.5C 872.427,170.027 873.094,171.027 874.5,171.5C 876.674,174.515 878.341,177.849 879.5,181.5C 884.283,193.677 888.783,206.01 893,218.5C 899.896,241.301 902.396,264.634 900.5,288.5C 899.751,294.824 899.085,301.157 898.5,307.5C 897.883,307.611 897.383,307.944 897,308.5C 896.304,311.478 895.804,314.478 895.5,317.5C 893.955,323.432 892.621,329.432 891.5,335.5C 890.262,337.214 889.595,339.214 889.5,341.5C 887.345,343.617 886.345,346.284 886.5,349.5C 884.787,350.635 884.12,352.302 884.5,354.5C 882.787,355.635 882.12,357.302 882.5,359.5C 882.34,361.153 881.674,362.486 880.5,363.5C 877.742,366.678 875.742,370.345 874.5,374.5C 872.75,375.659 871.75,377.326 871.5,379.5C 870.094,379.973 869.427,380.973 869.5,382.5C 868.094,382.973 867.427,383.973 867.5,385.5C 866.094,385.973 865.427,386.973 865.5,388.5C 864.094,388.973 863.427,389.973 863.5,391.5C 863.5,392.167 863.167,392.5 862.5,392.5C 861.094,392.973 860.427,393.973 860.5,395.5C 860.5,396.167 860.167,396.5 859.5,396.5C 857.855,397.479 856.521,398.812 855.5,400.5C 855.855,401.522 856.522,402.189 857.5,402.5C 858.08,404.749 859.413,406.415 861.5,407.5C 861.738,409.404 862.738,410.738 864.5,411.5C 864.427,413.027 865.094,414.027 866.5,414.5C 866.427,416.027 867.094,417.027 868.5,417.5C 868.427,419.027 869.094,420.027 870.5,420.5C 870.427,422.027 871.094,423.027 872.5,423.5C 873.674,424.514 874.34,425.847 874.5,427.5C 874.427,429.027 875.094,430.027 876.5,430.5C 880.282,436.401 883.282,442.734 885.5,449.5C 885.345,452.716 886.345,455.383 888.5,457.5C 891.363,467.426 894.03,477.426 896.5,487.5C 900.543,508.663 901.543,529.996 899.5,551.5C 899.058,555.154 898.724,558.821 898.5,562.5C 898.451,566.078 897.785,569.411 896.5,572.5C 895.883,572.611 895.383,572.944 895,573.5C 893.957,576.757 893.457,580.09 893.5,583.5C 891.723,586.505 890.723,589.838 890.5,593.5C 888.603,595.698 887.603,598.364 887.5,601.5C 885.787,602.635 885.12,604.302 885.5,606.5C 883.787,607.635 883.12,609.302 883.5,611.5C 883.672,612.492 883.338,613.158 882.5,613.5C 879.073,618.016 876.407,623.016 874.5,628.5C 872.75,629.659 871.75,631.326 871.5,633.5C 869.75,634.659 868.75,636.326 868.5,638.5C 867.094,638.973 866.427,639.973 866.5,641.5C 864.738,642.262 863.738,643.596 863.5,645.5C 862.094,645.973 861.427,646.973 861.5,648.5C 861.5,649.167 861.167,649.5 860.5,649.5C 859.094,649.973 858.427,650.973 858.5,652.5C 858.167,653.5 857.5,654.167 856.5,654.5C 854.413,655.585 853.08,657.251 852.5,659.5C 851.833,660.833 850.833,661.833 849.5,662.5C 846.167,665.167 843.167,668.167 840.5,671.5C 839.167,673.5 837.5,675.167 835.5,676.5C 833.596,676.738 832.262,677.738 831.5,679.5C 831.167,680.5 830.5,681.167 829.5,681.5C 827.973,681.427 826.973,682.094 826.5,683.5C 826.5,684.167 826.167,684.5 825.5,684.5C 823.973,684.427 822.973,685.094 822.5,686.5C 816.3,692.014 809.3,696.347 801.5,699.5C 799.973,699.427 798.973,700.094 798.5,701.5C 768.996,716.212 737.663,724.712 704.5,727C 545.834,727.5 387.167,727.667 228.5,727.5C 228.828,678.761 228.495,630.095 227.5,581.5C 371.5,581.667 515.5,581.5 659.5,581C 667.247,580.264 674.913,579.098 682.5,577.5C 686.708,577.323 690.374,575.99 693.5,573.5C 695.698,573.88 697.365,573.213 698.5,571.5C 700.181,569.992 702.181,568.992 704.5,568.5C 706.027,568.573 707.027,567.906 707.5,566.5C 709.404,566.262 710.738,565.262 711.5,563.5C 713.716,562.797 715.549,561.464 717,559.5C 722.396,553.151 725.562,545.818 726.5,537.5C 729.831,522.498 726.997,508.831 718,496.5C 715.894,493.882 713.394,491.882 710.5,490.5C 709.738,488.738 708.404,487.738 706.5,487.5C 706.027,486.094 705.027,485.427 703.5,485.5C 696.612,482.222 689.612,479.222 682.5,476.5C 680.898,474.926 678.898,474.259 676.5,474.5C 673.126,474.326 669.793,473.826 666.5,473C 520.5,472.5 374.5,472.333 228.5,472.5C 228.828,423.761 228.495,375.095 227.5,326.5C 374.834,326.667 522.167,326.5 669.5,326C 674.18,325.163 678.846,324.329 683.5,323.5C 686.716,323.655 689.383,322.655 691.5,320.5C 693.509,318.935 695.843,317.935 698.5,317.5C 700.027,317.573 701.027,316.906 701.5,315.5C 701.842,314.662 702.508,314.328 703.5,314.5C 705.027,314.573 706.027,313.906 706.5,312.5C 718.134,305.921 724.801,295.921 726.5,282.5C 729.811,266.742 726.644,252.409 717,239.5C 715.549,237.536 713.716,236.203 711.5,235.5C 710.738,233.738 709.404,232.738 707.5,232.5C 707.027,231.094 706.027,230.427 704.5,230.5C 700.646,229.07 696.979,227.403 693.5,225.5C 692.365,223.787 690.698,223.12 688.5,223.5C 686.898,221.926 684.898,221.259 682.5,221.5C 674.21,219.84 665.877,218.507 657.5,217.5C 514.668,216.5 371.668,216.167 228.5,216.5C 228.5,168.167 228.5,119.833 228.5,71.5 Z"/></g>
<g><path style="opacity:0.941" fill="#637996" d="M 804.5,101.5 C 805.71,101.932 806.71,102.599 807.5,103.5C 805.821,103.715 804.821,103.048 804.5,101.5 Z"/></g>
<g><path style="opacity:0.004" fill="#96acc6" d="M 809.5,104.5 C 811.882,105.351 813.882,106.684 815.5,108.5C 812.733,108.13 810.733,106.796 809.5,104.5 Z"/></g>
<g><path style="opacity:0.008" fill="#b8d0e7" d="M 815.5,108.5 C 817.027,108.427 818.027,109.094 818.5,110.5C 816.973,110.573 815.973,109.906 815.5,108.5 Z"/></g>
<g><path style="opacity:0.004" fill="#bed6ec" d="M 818.5,110.5 C 820.027,110.427 821.027,111.094 821.5,112.5C 819.973,112.573 818.973,111.906 818.5,110.5 Z"/></g>
<g><path style="opacity:0.945" fill="#6a86aa" d="M 821.5,112.5 C 823.754,113.124 825.421,114.457 826.5,116.5C 824.205,115.864 822.539,114.531 821.5,112.5 Z"/></g>
<g><path style="opacity:0.012" fill="#b2cde7" d="M 826.5,116.5 C 828.027,116.427 829.027,117.094 829.5,118.5C 827.973,118.573 826.973,117.906 826.5,116.5 Z"/></g>
<g><path style="opacity:0.004" fill="#9fb8d7" d="M 829.5,118.5 C 832.109,119.443 834.109,121.11 835.5,123.5C 832.865,122.527 830.865,120.86 829.5,118.5 Z"/></g>
<g><path style="opacity:0.004" fill="#b8d7f1" d="M 838.5,126.5 C 843.5,129.5 847.5,133.5 850.5,138.5C 846.167,134.833 842.167,130.833 838.5,126.5 Z"/></g>
<g><path style="opacity:0.82" fill="#81a4d1" d="M 850.5,138.5 C 853.243,140.239 855.243,142.573 856.5,145.5C 853.757,143.761 851.757,141.427 850.5,138.5 Z"/></g>
<g><path style="opacity:0.216" fill="#9ac3e8" d="M 856.5,145.5 C 858.587,146.585 859.92,148.251 860.5,150.5C 858.413,149.415 857.08,147.749 856.5,145.5 Z"/></g>
<g><path style="opacity:0.388" fill="#96c4ec" d="M 860.5,150.5 C 862.262,151.262 863.262,152.596 863.5,154.5C 861.738,153.738 860.738,152.404 860.5,150.5 Z"/></g>
<g><path style="opacity:0.259" fill="#9ecef2" d="M 863.5,154.5 C 864.906,154.973 865.573,155.973 865.5,157.5C 864.094,157.027 863.427,156.027 863.5,154.5 Z"/></g>
<g><path style="opacity:0.271" fill="#98c9f0" d="M 865.5,157.5 C 866.906,157.973 867.573,158.973 867.5,160.5C 866.094,160.027 865.427,159.027 865.5,157.5 Z"/></g>
<g><path style="opacity:0.231" fill="#9fcff3" d="M 867.5,160.5 C 868.906,160.973 869.573,161.973 869.5,163.5C 868.094,163.027 867.427,162.027 867.5,160.5 Z"/></g>
<g><path style="opacity:0.153" fill="#b2def8" d="M 869.5,163.5 C 870.906,163.973 871.573,164.973 871.5,166.5C 870.094,166.027 869.427,165.027 869.5,163.5 Z"/></g>
<g><path style="opacity:0.122" fill="#b7e1f8" d="M 872.5,168.5 C 873.906,168.973 874.573,169.973 874.5,171.5C 873.094,171.027 872.427,170.027 872.5,168.5 Z"/></g>
<g><path style="opacity:0.98" fill="#8ba9d5" d="M 879.5,181.5 C 896.817,215.082 904.15,250.749 901.5,288.5C 901.167,288.5 900.833,288.5 900.5,288.5C 902.396,264.634 899.896,241.301 893,218.5C 888.783,206.01 884.283,193.677 879.5,181.5 Z"/></g>
<g><path style="opacity:0.565" fill="#928072" d="M 228.5,71.5 C 228.5,119.833 228.5,168.167 228.5,216.5C 371.668,216.167 514.668,216.5 657.5,217.5C 513.833,217.5 370.167,217.5 226.5,217.5C 225.838,168.489 226.505,119.822 228.5,71.5 Z"/></g>
<g><path style="opacity:0.8" fill="#a68e76" d="M 682.5,221.5 C 684.898,221.259 686.898,221.926 688.5,223.5C 686.214,223.405 684.214,222.738 682.5,221.5 Z"/></g>
<g><path style="opacity:0.867" fill="#9e826a" d="M 688.5,223.5 C 690.698,223.12 692.365,223.787 693.5,225.5C 691.597,225.204 689.93,224.537 688.5,223.5 Z"/></g>
<g><path style="opacity:0.286" fill="#d5b087" d="M 704.5,230.5 C 706.027,230.427 707.027,231.094 707.5,232.5C 705.973,232.573 704.973,231.906 704.5,230.5 Z"/></g>
<g><path style="opacity:0.62" fill="#d5ad83" d="M 707.5,232.5 C 709.404,232.738 710.738,233.738 711.5,235.5C 709.596,235.262 708.262,234.262 707.5,232.5 Z"/></g>
<g><path style="opacity:0.157" fill="#e5b685" d="M 711.5,235.5 C 713.716,236.203 715.549,237.536 717,239.5C 726.644,252.409 729.811,266.742 726.5,282.5C 726.167,282.5 725.833,282.5 725.5,282.5C 728.411,264.46 723.745,248.793 711.5,235.5 Z"/></g>
<g><path style="opacity:0.094" fill="#dcac79" d="M 725.5,282.5 C 725.833,282.5 726.167,282.5 726.5,282.5C 724.801,295.921 718.134,305.921 706.5,312.5C 711.136,308.696 715.303,304.362 719,299.5C 722.236,294.204 724.403,288.537 725.5,282.5 Z"/></g>
<g><path style="opacity:0.086" fill="#afddf9" d="M 900.5,288.5 C 900.833,288.5 901.167,288.5 901.5,288.5C 901.322,295.093 900.322,301.426 898.5,307.5C 899.085,301.157 899.751,294.824 900.5,288.5 Z"/></g>
<g><path style="opacity:0.624" fill="#6b89c0" d="M 898.5,307.5 C 898.451,311.078 897.785,314.411 896.5,317.5C 896.167,317.5 895.833,317.5 895.5,317.5C 895.804,314.478 896.304,311.478 897,308.5C 897.383,307.944 897.883,307.611 898.5,307.5 Z"/></g>
<g><path style="opacity:0.584" fill="#caa176" d="M 706.5,312.5 C 706.027,313.906 705.027,314.573 703.5,314.5C 703.973,313.094 704.973,312.427 706.5,312.5 Z"/></g>
<g><path style="opacity:0.616" fill="#c39f77" d="M 701.5,315.5 C 701.027,316.906 700.027,317.573 698.5,317.5C 698.973,316.094 699.973,315.427 701.5,315.5 Z"/></g>
<g><path style="opacity:0.933" fill="#705a49" d="M 691.5,320.5 C 689.383,322.655 686.716,323.655 683.5,323.5C 685.936,322.129 688.603,321.129 691.5,320.5 Z"/></g>
<g><path style="opacity:0.631" fill="#c78656" d="M 227.5,326.5 C 228.495,375.095 228.828,423.761 228.5,472.5C 227.167,448.509 226.5,424.176 226.5,399.5C 226.5,374.998 226.833,350.664 227.5,326.5 Z"/></g>
<g><path style="opacity:0.231" fill="#9fc8ed" d="M 895.5,317.5 C 895.833,317.5 896.167,317.5 896.5,317.5C 895.747,323.858 894.08,329.858 891.5,335.5C 892.621,329.432 893.955,323.432 895.5,317.5 Z"/></g>
<g><path style="opacity:0.004" fill="#cdedfd" d="M 891.5,335.5 C 891.741,337.898 891.074,339.898 889.5,341.5C 889.595,339.214 890.262,337.214 891.5,335.5 Z"/></g>
<g><path style="opacity:0.627" fill="#80a3d5" d="M 889.5,341.5 C 889.267,344.542 888.267,347.208 886.5,349.5C 886.345,346.284 887.345,343.617 889.5,341.5 Z"/></g>
<g><path style="opacity:0.537" fill="#83a8d9" d="M 886.5,349.5 C 886.598,351.553 885.931,353.22 884.5,354.5C 884.12,352.302 884.787,350.635 886.5,349.5 Z"/></g>
<g><path style="opacity:0.408" fill="#97bce6" d="M 884.5,354.5 C 884.598,356.553 883.931,358.22 882.5,359.5C 882.12,357.302 882.787,355.635 884.5,354.5 Z"/></g>
<g><path style="opacity:0.157" fill="#b1d9f4" d="M 880.5,363.5 C 879.258,367.655 877.258,371.322 874.5,374.5C 875.742,370.345 877.742,366.678 880.5,363.5 Z"/></g>
<g><path style="opacity:0.137" fill="#add6f3" d="M 874.5,374.5 C 874.25,376.674 873.25,378.341 871.5,379.5C 871.75,377.326 872.75,375.659 874.5,374.5 Z"/></g>
<g><path style="opacity:0.012" fill="#b7d9f4" d="M 871.5,379.5 C 871.573,381.027 870.906,382.027 869.5,382.5C 869.427,380.973 870.094,379.973 871.5,379.5 Z"/></g>
<g><path style="opacity:0.016" fill="#aed2f0" d="M 869.5,382.5 C 869.573,384.027 868.906,385.027 867.5,385.5C 867.427,383.973 868.094,382.973 869.5,382.5 Z"/></g>
<g><path style="opacity:0.016" fill="#b2d4f1" d="M 867.5,385.5 C 867.573,387.027 866.906,388.027 865.5,388.5C 865.427,386.973 866.094,385.973 867.5,385.5 Z"/></g>
<g><path style="opacity:0.008" fill="#c1e0f6" d="M 865.5,388.5 C 865.573,390.027 864.906,391.027 863.5,391.5C 863.427,389.973 864.094,388.973 865.5,388.5 Z"/></g>
<g><path style="opacity:0.008" fill="#bedcf5" d="M 862.5,392.5 C 862.573,394.027 861.906,395.027 860.5,395.5C 860.427,393.973 861.094,392.973 862.5,392.5 Z"/></g>
<g><path style="opacity:0.031" fill="#b0d2f0" d="M 859.5,396.5 C 858.37,398.315 857.704,400.315 857.5,402.5C 856.522,402.189 855.855,401.522 855.5,400.5C 856.521,398.812 857.855,397.479 859.5,396.5 Z"/></g>
<g><path style="opacity:0.184" fill="#9ec6ea" d="M 857.5,402.5 C 859.587,403.585 860.92,405.251 861.5,407.5C 859.413,406.415 858.08,404.749 857.5,402.5 Z"/></g>
<g><path style="opacity:0.345" fill="#9ecbef" d="M 861.5,407.5 C 863.262,408.262 864.262,409.596 864.5,411.5C 862.738,410.738 861.738,409.404 861.5,407.5 Z"/></g>
<g><path style="opacity:0.208" fill="#a9d7f6" d="M 864.5,411.5 C 865.906,411.973 866.573,412.973 866.5,414.5C 865.094,414.027 864.427,413.027 864.5,411.5 Z"/></g>
<g><path style="opacity:0.22" fill="#a5d4f4" d="M 866.5,414.5 C 867.906,414.973 868.573,415.973 868.5,417.5C 867.094,417.027 866.427,416.027 866.5,414.5 Z"/></g>
<g><path style="opacity:0.173" fill="#addbf7" d="M 868.5,417.5 C 869.906,417.973 870.573,418.973 870.5,420.5C 869.094,420.027 868.427,419.027 868.5,417.5 Z"/></g>
<g><path style="opacity:0.098" fill="#c2e9fb" d="M 870.5,420.5 C 871.906,420.973 872.573,421.973 872.5,423.5C 871.094,423.027 870.427,422.027 870.5,420.5 Z"/></g>
<g><path style="opacity:0.114" fill="#b7e2f9" d="M 874.5,427.5 C 875.906,427.973 876.573,428.973 876.5,430.5C 875.094,430.027 874.427,429.027 874.5,427.5 Z"/></g>
<g><path style="opacity:0.757" fill="#88a9d7" d="M 885.5,449.5 C 887.267,451.792 888.267,454.458 888.5,457.5C 886.345,455.383 885.345,452.716 885.5,449.5 Z"/></g>
<g><path style="opacity:0.749" fill="#98b9e1" d="M 888.5,457.5 C 892.72,467.029 895.72,477.029 897.5,487.5C 897.167,487.5 896.833,487.5 896.5,487.5C 894.03,477.426 891.363,467.426 888.5,457.5 Z"/></g>
<g><path style="opacity:0.804" fill="#a28c77" d="M 676.5,474.5 C 678.898,474.259 680.898,474.926 682.5,476.5C 680.214,476.405 678.214,475.738 676.5,474.5 Z"/></g>
<g><path style="opacity:0.349" fill="#cda47a" d="M 703.5,485.5 C 705.027,485.427 706.027,486.094 706.5,487.5C 704.973,487.573 703.973,486.906 703.5,485.5 Z"/></g>
<g><path style="opacity:0.404" fill="#d6ad81" d="M 706.5,487.5 C 708.404,487.738 709.738,488.738 710.5,490.5C 708.596,490.262 707.262,489.262 706.5,487.5 Z"/></g>
<g><path style="opacity:0.686" fill="#e5b585" d="M 710.5,490.5 C 713.394,491.882 715.894,493.882 718,496.5C 726.997,508.831 729.831,522.498 726.5,537.5C 726.167,537.5 725.833,537.5 725.5,537.5C 728.663,519.128 723.663,503.461 710.5,490.5 Z"/></g>
<g><path style="opacity:0.804" fill="#87a1d3" d="M 896.5,487.5 C 896.833,487.5 897.167,487.5 897.5,487.5C 902.836,508.545 903.836,529.878 900.5,551.5C 900.167,551.5 899.833,551.5 899.5,551.5C 901.543,529.996 900.543,508.663 896.5,487.5 Z"/></g>
<g><path style="opacity:0.129" fill="#dbac79" d="M 725.5,537.5 C 725.833,537.5 726.167,537.5 726.5,537.5C 725.562,545.818 722.396,553.151 717,559.5C 715.549,561.464 713.716,562.797 711.5,563.5C 718.773,556.29 723.44,547.624 725.5,537.5 Z"/></g>
<g><path style="opacity:0.082" fill="#bfebfc" d="M 899.5,551.5 C 899.833,551.5 900.167,551.5 900.5,551.5C 900.57,555.425 899.903,559.091 898.5,562.5C 898.724,558.821 899.058,555.154 899.5,551.5 Z"/></g>
<g><path style="opacity:0.416" fill="#d5ab7d" d="M 711.5,563.5 C 710.738,565.262 709.404,566.262 707.5,566.5C 708.262,564.738 709.596,563.738 711.5,563.5 Z"/></g>
<g><path style="opacity:0.675" fill="#b98f65" d="M 707.5,566.5 C 707.027,567.906 706.027,568.573 704.5,568.5C 704.973,567.094 705.973,566.427 707.5,566.5 Z"/></g>
<g><path style="opacity:0.933" fill="#8d725c" d="M 698.5,571.5 C 697.365,573.213 695.698,573.88 693.5,573.5C 694.93,572.463 696.597,571.796 698.5,571.5 Z"/></g>
<g><path style="opacity:0.804" fill="#937860" d="M 693.5,573.5 C 690.374,575.99 686.708,577.323 682.5,577.5C 685.939,575.796 689.605,574.462 693.5,573.5 Z"/></g>
<g><path style="opacity:0.267" fill="#94b9e3" d="M 896.5,572.5 C 896.258,576.479 895.258,580.146 893.5,583.5C 893.457,580.09 893.957,576.757 895,573.5C 895.383,572.944 895.883,572.611 896.5,572.5 Z"/></g>
<g><path style="opacity:0.631" fill="#c78656" d="M 227.5,581.5 C 228.495,630.095 228.828,678.761 228.5,727.5C 227.167,703.509 226.5,679.176 226.5,654.5C 226.5,629.998 226.833,605.664 227.5,581.5 Z"/></g>
<g><path style="opacity:0.004" fill="#c0e3f9" d="M 893.5,583.5 C 893.277,587.162 892.277,590.495 890.5,593.5C 890.723,589.838 891.723,586.505 893.5,583.5 Z"/></g>
<g><path style="opacity:0.149" fill="#a0cbee" d="M 890.5,593.5 C 890.267,596.542 889.267,599.208 887.5,601.5C 887.603,598.364 888.603,595.698 890.5,593.5 Z"/></g>
<g><path style="opacity:0.514" fill="#86acdc" d="M 887.5,601.5 C 887.598,603.553 886.931,605.22 885.5,606.5C 885.12,604.302 885.787,602.635 887.5,601.5 Z"/></g>
<g><path style="opacity:0.424" fill="#94b8e4" d="M 885.5,606.5 C 885.598,608.553 884.931,610.22 883.5,611.5C 883.12,609.302 883.787,607.635 885.5,606.5 Z"/></g>
<g><path style="opacity:0.176" fill="#a4ceef" d="M 882.5,613.5 C 880.593,618.984 877.927,623.984 874.5,628.5C 876.407,623.016 879.073,618.016 882.5,613.5 Z"/></g>
<g><path style="opacity:0.192" fill="#9ccaed" d="M 874.5,628.5 C 874.25,630.674 873.25,632.341 871.5,633.5C 871.75,631.326 872.75,629.659 874.5,628.5 Z"/></g>
<g><path style="opacity:0.149" fill="#a9d1f0" d="M 871.5,633.5 C 871.25,635.674 870.25,637.341 868.5,638.5C 868.75,636.326 869.75,634.659 871.5,633.5 Z"/></g>
<g><path style="opacity:0.004" fill="#c7e5f9" d="M 868.5,638.5 C 868.573,640.027 867.906,641.027 866.5,641.5C 866.427,639.973 867.094,638.973 868.5,638.5 Z"/></g>
<g><path style="opacity:0.004" fill="#bedef5" d="M 866.5,641.5 C 866.262,643.404 865.262,644.738 863.5,645.5C 863.738,643.596 864.738,642.262 866.5,641.5 Z"/></g>
<g><path style="opacity:0.008" fill="#beddf5" d="M 863.5,645.5 C 863.573,647.027 862.906,648.027 861.5,648.5C 861.427,646.973 862.094,645.973 863.5,645.5 Z"/></g>
<g><path style="opacity:0.008" fill="#c2e0f6" d="M 860.5,649.5 C 860.573,651.027 859.906,652.027 858.5,652.5C 858.427,650.973 859.094,649.973 860.5,649.5 Z"/></g>
<g><path style="opacity:0.031" fill="#afceeb" d="M 856.5,654.5 C 855.92,656.749 854.587,658.415 852.5,659.5C 853.08,657.251 854.413,655.585 856.5,654.5 Z"/></g>
<g><path style="opacity:0.004" fill="#cfe5f7" d="M 849.5,662.5 C 847.5,666.5 844.5,669.5 840.5,671.5C 843.167,668.167 846.167,665.167 849.5,662.5 Z"/></g>
<g><path style="opacity:0.012" fill="#cae0f3" d="M 835.5,676.5 C 834.738,678.262 833.404,679.262 831.5,679.5C 832.262,677.738 833.596,676.738 835.5,676.5 Z"/></g>
<g><path style="opacity:0.004" fill="#d2e6f5" d="M 829.5,681.5 C 829.027,682.906 828.027,683.573 826.5,683.5C 826.973,682.094 827.973,681.427 829.5,681.5 Z"/></g>
<g><path style="opacity:0.004" fill="#cfe4f4" d="M 825.5,684.5 C 825.027,685.906 824.027,686.573 822.5,686.5C 822.973,685.094 823.973,684.427 825.5,684.5 Z"/></g>
<g><path style="opacity:0.004" fill="#cadeee" d="M 801.5,699.5 C 801.027,700.906 800.027,701.573 798.5,701.5C 798.973,700.094 799.973,699.427 801.5,699.5 Z"/></g>
</svg>
